{"title":"Girls.Against.Boys.2012.BRRip.XviD.MP3-RARBG","uid":13415863,"size":1254022501,"categoryP":"video","categoryS":"movies","magnet":"?xt=urn:btih:99d21630d889e84a56943afd92454105371ee6f1&amp;dn=Girls.Against.Boys.2012.BRRip.XviD.MP3-RARBG&amp;tr=udp%3A%2F%2Ftracker.leechers-paradise.org%3A6969&amp;tr=udp%3A%2F%2Fzer0day.ch%3A1337&amp;tr=udp%3A%2F%2Fopen.demonii.com%3A1337&amp;tr=udp%3A%2F%2Ftracker.coppersurfer.tk%3A6969&amp;tr=udp%3A%2F%2Fexodus.desync.com%3A6969","seeders":0,"leechers":0,"uploader":null,"files":4,"time":1454495103,"description":"Video\r\nID                                       : 0\r\nFormat                                   : MPEG-4 Visual\r\nFormat profile                           :   \r\nFormat settings, BVOP                    : No\r\nFormat settings, QPel                    : No\r\nFormat settings, GMC                     : No warppoints\r\nFormat settings, Matrix                  : Default (H.263)\r\nCodec ID                                 : XVID\r\nCodec ID/Hint                            : XviD\r\nDuration                                 : 1h 33mn\r\nBit rate                                 : 1 586 Kbps\r\nWidth                                    : 720 pixels\r\nHeight                                   : 400 pixels\r\nDisplay aspect ratio                     : 16:9\r\nFrame rate                               : 23.976 fps\r\nColor space                              : YUV\r\nChroma subsampling                       : 4:2:0\r\nBit depth                                : 8 bits\r\nScan type                                : Progressive\r\nCompression mode                         : Lossy\r\nBits/(Pixel*Frame)                       : 0.230\r\nStream size                              : 1.03 GiB (88%)\r\nTitle                                    : RARBG.COM - Girls.Against.Boys.2012.BRRip.XviD.MP3-RARBG\r\nWriting library                          : Lavc56.60.100\r\n\r\nAudio\r\nID                                       : 1\r\nFormat                                   : MPEG Audio\r\nFormat version                           : Version 1\r\nFormat profile                           : Layer 3\r\nMode                                     : Joint stereo\r\nMode extension                           : MS Stereo\r\nCodec ID                                 : 55\r\nCodec ID/Hint                            : MP3\r\nDuration                                 : 1h 33mn\r\nBit rate mode                            : Constant\r\nBit rate                                 : 192 Kbps\r\nChannel(s)                               : 2 channels\r\nSampling rate                            : 48.0 KHz\r\nCompression mode                         : Lossy\r\nStream size                              : 128 MiB (11%)\r\nAlignment                                : Aligned on interleaves\r\nInterleave, duration                     : 24 ms (0.58 video frame)\r\nInterleave, preload duration             : 24 ms\r\nTitle                                    : RARBG.COM - Girls.Against.Boys.2012.BRRip.XviD.MP3-RARBG\r\nWriting library                          : LAME3.99.5","torrent":{"xt":"urn:btih:99d21630d889e84a56943afd92454105371ee6f1","amp;dn":"Girls.Against.Boys.2012.BRRip.XviD.MP3-RARBG","amp;tr":["udp%3A%2F%2Ftracker.leechers-paradise.org%3A6969","udp%3A%2F%2Fzer0day.ch%3A1337","udp%3A%2F%2Fopen.demonii.com%3A1337","udp%3A%2F%2Ftracker.coppersurfer.tk%3A6969","udp%3A%2F%2Fexodus.desync.com%3A6969"],"infoHash":"99d21630d889e84a56943afd92454105371ee6f1","infoHashBuffer":{"type":"Buffer","data":[153,210,22,48,216,137,232,74,86,148,58,253,146,69,65,5,55,30,230,241]},"announce":[],"urlList":[]}}